<?xml version="1.0" standalone="no"?><!DOCTYPE svg PUBLIC "-//W3C//DTD SVG 1.1//EN" "http://www.w3.org/Graphics/SVG/1.1/DTD/svg11.dtd"><svg t="1733199794096" class="icon" viewBox="0 0 1066 1024" version="1.1" xmlns="http://www.w3.org/2000/svg" p-id="15491" xmlns:xlink="http://www.w3.org/1999/xlink" width="49.96875" height="48"><path d="M533.333333 938.666667c235.648 0 426.666667-191.018667 426.666667-426.666667s-191.018667-426.666667-426.666667-426.666667-426.666667 191.018667-426.666666 426.666667 191.018667 426.666667 426.666666 426.666667z" fill="#8247E5" p-id="15492"></path><path d="M674.56 420.693333a36.096 36.096 0 0 0-34.816 0l-79.786667 45.653334-54.272 29.781333-79.786666 45.653333a36.138667 36.138667 0 0 1-34.816 0L327.68 506.026667a34.048 34.048 0 0 1-17.408-28.757334V406.826667a32 32 0 0 1 17.408-28.8l62.421333-34.688c10.24-5.973333 23.552-5.973333 34.816 0l62.421334 34.688c10.24 5.973333 17.365333 16.896 17.365333 28.8v45.653333l54.272-30.762667v-45.653333a32 32 0 0 0-17.408-28.757333l-115.626667-65.493334a36.096 36.096 0 0 0-34.816 0L273.408 347.306667A32 32 0 0 0 256 376.064v131.968a32 32 0 0 0 17.408 28.757333l117.674667 65.493334c10.24 5.973333 23.552 5.973333 34.816 0l79.786666-44.629334 54.272-30.762666 79.786667-44.672c10.24-5.973333 23.552-5.973333 34.816 0l62.421333 34.730666c10.24 5.973333 17.408 16.896 17.408 28.8v70.4a32 32 0 0 1-17.408 28.8l-62.421333 35.754667a36.138667 36.138667 0 0 1-34.816 0l-62.421333-34.730667a34.048 34.048 0 0 1-17.365334-28.8v-45.653333l-54.272 30.762667v45.653333a32 32 0 0 0 17.408 28.8l117.674667 65.450667c10.24 5.973333 23.552 5.973333 34.816 0l117.674667-65.450667a34.048 34.048 0 0 0 17.408-28.8v-131.968a32 32 0 0 0-17.408-28.757333L674.56 420.693333z" fill="#FFFFFF" p-id="15493"></path></svg>