<?xml version="1.0" encoding="UTF-8"?>
<svg version="1.1" xmlns="http://www.w3.org/2000/svg" width="232" height="232">
<path d="M0 0 C76.56 0 153.12 0 232 0 C232 76.56 232 153.12 232 232 C155.44 232 78.88 232 0 232 C0 155.44 0 78.88 0 0 Z " fill="#F4F4F4" transform="translate(0,0)"/>
<path d="M0 0 C4.82119408 3.41866489 9.12858167 6.99711425 13.24609375 11.234375 C16.81376225 14.82588093 20.71432035 18.04748479 24.56103516 21.33349609 C26.33269967 22.84693 28.10393488 24.36086471 29.875 25.875 C30.48327637 26.39449219 31.09155273 26.91398437 31.71826172 27.44921875 C35.25586318 30.47847341 38.74370891 33.55128834 42.1875 36.6875 C45.59821516 39.78968008 49.0973376 42.73238274 52.6875 45.625 C55.88558689 48.2104956 58.92993219 50.81663805 61.8125 53.75 C62.35519531 54.30171875 62.89789063 54.8534375 63.45703125 55.421875 C64.48059931 56.46876487 65.49890832 57.52082419 66.51171875 58.578125 C68.14906273 60.22482172 68.14906273 60.22482172 71 62 C75.70144931 61.62525695 80.05319322 60.52063395 84.5625 59.1796875 C91.68992937 57.09080823 98.83924122 55.09621462 106 53.125 C107.2487793 52.77912842 108.49755859 52.43325684 109.78417969 52.0769043 C115.66383316 50.45163118 121.54605303 48.84710692 127.453125 47.32421875 C128.43796875 47.06688965 129.4228125 46.80956055 130.4375 46.54443359 C132.24213397 46.07479013 134.04927664 45.61462519 135.859375 45.16650391 C144.62732624 42.86873187 151.49383568 38.78285376 158.25 32.8125 C164.56525863 27.24070436 168.87088103 25.53004557 177.22265625 25.67578125 C181.42346278 26.16617076 184.40705962 27.89405385 188 30 C190.3130513 31.05499859 192.65286866 32.02202861 195 33 C195 33.99 195 34.98 195 36 C196.03125 35.95875 197.0625 35.9175 198.125 35.875 C201.92197972 35.99748322 204.54122905 36.47170586 208 38 C208.66 38.99 209.32 39.98 210 41 C205.64409432 42.62849969 201.76065388 43.34118446 197.125 43.625 C195.97257813 43.69976562 194.82015625 43.77453125 193.6328125 43.8515625 C192.76398438 43.90054688 191.89515625 43.94953125 191 44 C190.74476563 44.763125 190.48953125 45.52625 190.2265625 46.3125 C188.90850308 49.20047733 187.93452647 50.20527228 185.375 52 C184.30958984 52.76957031 184.30958984 52.76957031 183.22265625 53.5546875 C181 55 181 55 178.87109375 56.0703125 C172.95321111 59.10224478 171.64058845 62.60232493 169.41015625 68.7265625 C165.42183088 77.98478039 157.98125555 85.65891341 150.4375 92.1875 C149.87933594 92.67605469 149.32117188 93.16460937 148.74609375 93.66796875 C146.91713227 95.06321677 145.0556449 95.98060232 143 97 C142.360625 97.639375 141.72125 98.27875 141.0625 98.9375 C138.8838886 101.1161114 136.63539775 102.43300674 134 104 C132.10738423 107.78523153 132.36610116 111.88822371 133 116 C134.35773392 118.85005371 135.90740745 121.36454053 137.6875 123.96875 C139 126 139 126 139 128 C139.84304687 127.97679687 140.68609375 127.95359375 141.5546875 127.9296875 C142.65039062 127.91164063 143.74609375 127.89359375 144.875 127.875 C145.96554688 127.85179687 147.05609375 127.82859375 148.1796875 127.8046875 C151 128 151 128 153 130 C154.64991582 130.70710678 156.31562256 131.37943989 158 132 C158 132.99 158 133.98 158 135 C157.401875 134.67 156.80375 134.34 156.1875 134 C153.94613529 132.79212012 153.94613529 132.79212012 151 133 C148.8125 132 148.8125 132 147 131 C147.515625 131.598125 148.03125 132.19625 148.5625 132.8125 C149.036875 133.534375 149.51125 134.25625 150 135 C149.67 135.99 149.34 136.98 149 138 C148.67 137.34 148.34 136.68 148 136 C147.01 135.67 146.02 135.34 145 135 C144.67 134.34 144.34 133.68 144 133 C139.89224871 131.2804762 136.43949918 130.61395659 132 131 C130.65909241 131.65129797 129.32407669 132.31513275 128 133 C127.01 132.67 126.02 132.34 125 132 C125.33 133.32 125.66 134.64 126 136 C126.68964844 135.94199219 127.37929687 135.88398438 128.08984375 135.82421875 C135.44103299 135.471281 139.96014478 136.82429763 146 141 C145.67 141.66 145.34 142.32 145 143 C141.12123691 142.13805265 137.55194274 140.77597137 134 139 C134 139.99 134 140.98 134 142 C134.99 142.33 135.98 142.66 137 143 C137.33 143.99 137.66 144.98 138 146 C137.34 146 136.68 146 136 146 C135.67 145.34 135.34 144.68 135 144 C134.01 143.67 133.02 143.34 132 143 C132 142.34 132 141.68 132 141 C127.22459203 140.04491841 122.84621049 139.92183531 118 140 C115 140 112 140 109 140 C110 138 110 138 113.25 136.875 C116.41097511 136.13743914 118.80551001 135.92289162 122 136 C121.57847656 135.32453125 121.15695313 134.6490625 120.72265625 133.953125 C119.90087891 132.61507812 119.90087891 132.61507812 119.0625 131.25 C118.51722656 130.36828125 117.97195312 129.4865625 117.41015625 128.578125 C116.17284288 126.31600083 115.46409487 124.51433675 115 122 C116.8125 122.1875 116.8125 122.1875 119 123 C122 127.17857143 122 127.17857143 122 130 C126.34184202 129.81535634 126.34184202 129.81535634 130 128 C131.66617115 127.95936168 133.33388095 127.957279 135 128 C134.45859375 127.06027344 134.45859375 127.06027344 133.90625 126.1015625 C133.4421875 125.28429687 132.978125 124.46703125 132.5 123.625 C132.0359375 122.81289062 131.571875 122.00078125 131.09375 121.1640625 C130 119 130 119 130 117 C129.443125 116.9175 128.88625 116.835 128.3125 116.75 C125.30743682 115.77538491 123.42745178 113.99175531 121 112 C118.07175348 111.02391783 116.04386724 110.91773332 113 111 C113.25 109.125 113.25 109.125 114 107 C115.8125 105.625 115.8125 105.625 118 105 C119.33333333 105.66666667 120.66666667 106.33333333 122 107 C124.08333333 106.16666667 124.08333333 106.16666667 126 105 C126.99 105 127.98 105 129 105 C126.23776722 102.23776722 123.79293383 102.42143709 120 102 C119.67 101.01 119.34 100.02 119 99 C116.69 99 114.38 99 112 99 C112 99.66 112 100.32 112 101 C111.01 101 110.02 101 109 101 C109.495 99.02 109.495 99.02 110 97 C108.90945312 97.27714844 107.81890625 97.55429688 106.6953125 97.83984375 C98.79105559 99.77520088 90.86080223 101.4353816 82.75 102.1875 C82.07984863 102.27829834 81.40969727 102.36909668 80.71923828 102.46264648 C75.46694773 102.82904166 72.32504502 101.20703647 67.78125 98.62890625 C58.62487022 93.57592302 49.00013184 93.4047835 38.75 92.75 C36.79369499 92.60323425 34.83763659 92.45314517 32.88183594 92.29980469 C29.9698201 92.07183514 27.05783823 91.84571273 24.14483643 91.63067627 C16.15119168 91.03893242 8.20699426 90.21566578 0.25 89.25 C-0.81895508 89.12206055 -1.88791016 88.99412109 -2.98925781 88.86230469 C-5.32684896 88.57994849 -7.66375066 88.29321348 -10 88 C-7.88060334 85.88060334 -6.98654575 85.53592026 -4.18725586 84.75073242 C-3.4014061 84.52677292 -2.61555634 84.30281342 -1.80589294 84.07206726 C-0.52332359 83.717351 -0.52332359 83.717351 0.78515625 83.35546875 C1.67424179 83.10380447 2.56332733 82.8521402 3.47935486 82.59284973 C6.33869269 81.78484621 9.20047282 80.9859196 12.0625 80.1875 C14.8610725 79.40046961 17.6591138 78.61157128 20.4571228 77.82254028 C22.29529532 77.30438095 24.13369356 76.78702167 25.97232056 76.27047729 C34.33590127 73.91752513 42.67203267 71.47569575 51 69 C51 68.34 51 67.68 51 67 C49.51261765 65.64617851 47.95569449 64.36860114 46.375 63.125 C41.8544769 59.50509525 37.39607287 55.83272206 33 52.0625 C32.41299316 51.55952393 31.82598633 51.05654785 31.22119141 50.53833008 C26.42701349 46.40945854 21.74800219 42.16567659 17.109375 37.86328125 C15.14024526 35.96305296 15.14024526 35.96305296 13 35 C12.70940589 33.11260591 12.49255746 31.21362617 12.3125 29.3125 C11.77352765 24.91806346 11.77352765 24.91806346 9.45703125 21.328125 C8.85246094 20.91046875 8.24789063 20.4928125 7.625 20.0625 C2.26309808 16.33491474 1.27115442 10.11101567 0 4 C0 2.68 0 1.36 0 0 Z " fill="#7A6F5E" transform="translate(14,21)"/>
<path d="M0 0 C4.82119408 3.41866489 9.12858167 6.99711425 13.24609375 11.234375 C16.81376225 14.82588093 20.71432035 18.04748479 24.56103516 21.33349609 C26.33269967 22.84693 28.10393488 24.36086471 29.875 25.875 C30.48327637 26.39449219 31.09155273 26.91398437 31.71826172 27.44921875 C35.25586318 30.47847341 38.74370891 33.55128834 42.1875 36.6875 C45.59821516 39.78968008 49.0973376 42.73238274 52.6875 45.625 C56.47826312 48.69066638 59.98061557 51.85385221 63.36328125 55.359375 C66.08787405 58.09047041 69.04263374 60.52546904 72 63 C71.01 63.99 70.02 64.98 69 66 C83.60858934 72.48570992 97.08508681 75.22456727 113.0625 75.5 C114.1335498 75.53077637 115.20459961 75.56155273 116.30810547 75.59326172 C122.24730107 75.59419658 125.85095047 75.1520588 130.41918945 71.27392578 C133.01061039 69.18558069 135.94716934 68.27424325 139.0625 67.1875 C140.81240234 66.55908203 140.81240234 66.55908203 142.59765625 65.91796875 C145.90914805 65.02451229 148.59140676 64.81841589 152 65 C152.33 65.99 152.66 66.98 153 68 C147.76446456 78.17770037 133.17121085 83.77253329 122.90625 87.19921875 C103.00094861 92.68387841 82.20472846 93.36345313 61.6875 93.25 C60.7004306 93.24723053 59.71336121 93.24446106 58.69638062 93.24160767 C44.36431926 93.19450611 30.23580631 92.74300597 16 91 C13.62002271 90.73102072 11.23979695 90.46423403 8.859375 90.19921875 C2.5696072 89.49302412 -3.71619443 88.75730443 -10 88 C-7.88060334 85.88060334 -6.98654575 85.53592026 -4.18725586 84.75073242 C-3.4014061 84.52677292 -2.61555634 84.30281342 -1.80589294 84.07206726 C-0.52332359 83.717351 -0.52332359 83.717351 0.78515625 83.35546875 C1.67424179 83.10380447 2.56332733 82.8521402 3.47935486 82.59284973 C6.33869269 81.78484621 9.20047282 80.9859196 12.0625 80.1875 C14.8610725 79.40046961 17.6591138 78.61157128 20.4571228 77.82254028 C22.29529532 77.30438095 24.13369356 76.78702167 25.97232056 76.27047729 C34.33590127 73.91752513 42.67203267 71.47569575 51 69 C51 68.34 51 67.68 51 67 C49.51261765 65.64617851 47.95569449 64.36860114 46.375 63.125 C41.8544769 59.50509525 37.39607287 55.83272206 33 52.0625 C32.41299316 51.55952393 31.82598633 51.05654785 31.22119141 50.53833008 C26.42701349 46.40945854 21.74800219 42.16567659 17.109375 37.86328125 C15.14024526 35.96305296 15.14024526 35.96305296 13 35 C12.70940589 33.11260591 12.49255746 31.21362617 12.3125 29.3125 C11.77352765 24.91806346 11.77352765 24.91806346 9.45703125 21.328125 C8.85246094 20.91046875 8.24789063 20.4928125 7.625 20.0625 C2.26309808 16.33491474 1.27115442 10.11101567 0 4 C0 2.68 0 1.36 0 0 Z " fill="#3D301B" transform="translate(14,21)"/>
<path d="M0 0 C4.92980953 2.00844092 8.09403383 5.64105074 11 10 C3.32698816 19.38691483 3.32698816 19.38691483 -2.0625 22 C-4.148853 22.95249372 -4.148853 22.95249372 -5.9375 24.9375 C-8.1161114 27.1161114 -10.36460225 28.43300674 -13 30 C-14.89261577 33.78523153 -14.63389884 37.88822371 -14 42 C-12.64226608 44.85005371 -11.09259255 47.36454053 -9.3125 49.96875 C-8 52 -8 52 -8 54 C-7.15695313 53.97679687 -6.31390625 53.95359375 -5.4453125 53.9296875 C-3.80175781 53.90261719 -3.80175781 53.90261719 -2.125 53.875 C-0.48917969 53.84019531 -0.48917969 53.84019531 1.1796875 53.8046875 C4 54 4 54 6 56 C7.64991582 56.70710678 9.31562256 57.37943989 11 58 C11 58.99 11 59.98 11 61 C10.401875 60.67 9.80375 60.34 9.1875 60 C6.94613529 58.79212012 6.94613529 58.79212012 4 59 C1.8125 58 1.8125 58 0 57 C0.515625 57.598125 1.03125 58.19625 1.5625 58.8125 C2.036875 59.534375 2.51125 60.25625 3 61 C2.67 61.99 2.34 62.98 2 64 C1.67 63.34 1.34 62.68 1 62 C-0.485 61.505 -0.485 61.505 -2 61 C-2.33 60.34 -2.66 59.68 -3 59 C-7.10775129 57.2804762 -10.56050082 56.61395659 -15 57 C-16.34090759 57.65129797 -17.67592331 58.31513275 -19 59 C-20.485 58.505 -20.485 58.505 -22 58 C-21.505 59.98 -21.505 59.98 -21 62 C-20.31035156 61.94199219 -19.62070313 61.88398438 -18.91015625 61.82421875 C-11.55896701 61.471281 -7.03985522 62.82429763 -1 67 C-1.33 67.66 -1.66 68.32 -2 69 C-5.87876309 68.13805265 -9.44805726 66.77597137 -13 65 C-13 65.99 -13 66.98 -13 68 C-11.515 68.495 -11.515 68.495 -10 69 C-9.67 69.99 -9.34 70.98 -9 72 C-9.66 72 -10.32 72 -11 72 C-11.33 71.34 -11.66 70.68 -12 70 C-13.485 69.505 -13.485 69.505 -15 69 C-15 68.34 -15 67.68 -15 67 C-19.77540797 66.04491841 -24.15378951 65.92183531 -29 66 C-32 66 -35 66 -38 66 C-37 64 -37 64 -33.75 62.875 C-30.58902489 62.13743914 -28.19448999 61.92289162 -25 62 C-25.63228516 60.98679687 -25.63228516 60.98679687 -26.27734375 59.953125 C-26.82519531 59.06109375 -27.37304688 58.1690625 -27.9375 57.25 C-28.48277344 56.36828125 -29.02804688 55.4865625 -29.58984375 54.578125 C-30.82715712 52.31600083 -31.53590513 50.51433675 -32 48 C-30.1875 48.1875 -30.1875 48.1875 -28 49 C-25 53.17857143 -25 53.17857143 -25 56 C-20.65815798 55.81535634 -20.65815798 55.81535634 -17 54 C-15.33382885 53.95936168 -13.66611905 53.957279 -12 54 C-12.3609375 53.37351563 -12.721875 52.74703125 -13.09375 52.1015625 C-13.78984375 50.87566406 -13.78984375 50.87566406 -14.5 49.625 C-15.19609375 48.40683594 -15.19609375 48.40683594 -15.90625 47.1640625 C-17 45 -17 45 -17 43 C-17.556875 42.9175 -18.11375 42.835 -18.6875 42.75 C-21.69256318 41.77538491 -23.57254822 39.99175531 -26 38 C-28.92824652 37.02391783 -30.95613276 36.91773332 -34 37 C-33.75 35.125 -33.75 35.125 -33 33 C-31.1875 31.625 -31.1875 31.625 -29 31 C-27.66666667 31.66666667 -26.33333333 32.33333333 -25 33 C-22.91666667 32.16666667 -22.91666667 32.16666667 -21 31 C-20.01 31 -19.02 31 -18 31 C-20.76223278 28.23776722 -23.20706617 28.42143709 -27 28 C-27.495 26.515 -27.495 26.515 -28 25 C-30.31 25 -32.62 25 -35 25 C-35 25.66 -35 26.32 -35 27 C-35.99 27 -36.98 27 -38 27 C-37.67 25.68 -37.34 24.36 -37 23 C-38.63582031 23.41572266 -38.63582031 23.41572266 -40.3046875 23.83984375 C-69.46205414 30.97902432 -69.46205414 30.97902432 -83.5859375 22.66015625 C-89.22242145 19.91930307 -94.77008582 19.93372432 -101 20 C-101 19.67 -101 19.34 -101 19 C-99.99026123 18.98541748 -98.98052246 18.97083496 -97.94018555 18.95581055 C-46.16538515 19.90959614 -46.16538515 19.90959614 0 0 Z " fill="#E0DFDE" transform="translate(161,95)"/>
<path d="M0 0 C0.495 0.99 0.495 0.99 1 2 C1.99 2.33 2.98 2.66 4 3 C7.46710288 7.70694481 11.4872875 13.20081871 11.4375 19.25 C11.2209375 20.61125 11.2209375 20.61125 11 22 C10.26136719 22.08636719 9.52273437 22.17273438 8.76171875 22.26171875 C0.23448941 23.44274543 -7.83077054 25.54459316 -14.578125 31.13671875 C-19.62433045 33.88448131 -24.22086229 33.55481977 -29.875 33.4375 C-30.99181152 33.42283691 -32.10862305 33.40817383 -33.25927734 33.39306641 C-47.99352752 33.05901915 -60.56029877 29.96676391 -74 24 C-74 23.01 -74 22.02 -74 21 C-56.7676741 15.61856095 -39.41925562 10.73685755 -22 6 C-19.75512206 5.38703461 -17.51032699 4.77376565 -15.265625 4.16015625 C-10.17800862 2.77002106 -5.0893647 1.38372017 0 0 Z " fill="#998E7F" transform="translate(157,64)"/>
<path d="M0 0 C0.495 1.485 0.495 1.485 1 3 C-4.23553544 13.17770037 -18.82878915 18.77253329 -29.09375 22.19921875 C-35.3250021 23.91616321 -41.6174887 25.04255132 -48 26 C-48.66918457 26.10586426 -49.33836914 26.21172852 -50.02783203 26.32080078 C-69.12460885 29.20704418 -88.7456049 28.18217404 -108 28 C-108 27.67 -108 27.34 -108 27 C-107.16339844 26.97421875 -106.32679687 26.9484375 -105.46484375 26.921875 C-96.84801706 26.50200748 -89.30912733 24.94668253 -81.01220703 22.55273438 C-77.41111073 21.56354704 -73.76622231 20.76376046 -70.125 19.9375 C-64.29098744 18.5891745 -58.58112867 17.19258626 -53 15 C-52.67 14.34 -52.34 13.68 -52 13 C-49.0264167 11.13118407 -46.73945456 10.75999829 -43.26171875 10.76171875 C-42.35873047 10.74560547 -41.45574219 10.72949219 -40.52539062 10.71289062 C-38.64525033 10.696069 -36.76496976 10.69071439 -34.88476562 10.69726562 C-29.22799396 10.57263171 -25.99862784 9.88988189 -21.62475586 6.26733398 C-18.99512388 4.21618152 -16.06264869 3.27766815 -12.9375 2.1875 C-11.77089844 1.76855469 -10.60429687 1.34960938 -9.40234375 0.91796875 C-6.09085195 0.02451229 -3.40859324 -0.18158411 0 0 Z " fill="#372A14" transform="translate(166,86)"/>
<path d="M0 0 C4.82119408 3.41866489 9.12858167 6.99711425 13.24609375 11.234375 C16.81376225 14.82588093 20.71432035 18.04748479 24.56103516 21.33349609 C26.33269967 22.84693 28.10393488 24.36086471 29.875 25.875 C30.48327637 26.39449219 31.09155273 26.91398437 31.71826172 27.44921875 C35.25586318 30.47847341 38.74370891 33.55128834 42.1875 36.6875 C45.59821516 39.78968008 49.0973376 42.73238274 52.6875 45.625 C56.47826312 48.69066638 59.98061557 51.85385221 63.36328125 55.359375 C66.08787405 58.09047041 69.04263374 60.52546904 72 63 C70.4375 64.5625 70.4375 64.5625 68 66 C63.20894404 65.82577978 59.8241537 64.89395415 56 62 C55.401875 61.236875 54.80375 60.47375 54.1875 59.6875 C51.73236242 56.67118811 49.08464101 54.73684842 45.94921875 52.4765625 C43.39790685 50.54390539 41.26078872 48.26078872 39 46 C37.906875 45.278125 36.81375 44.55625 35.6875 43.8125 C34.800625 43.214375 33.91375 42.61625 33 42 C33 41.34 33 40.68 33 40 C32.42378906 39.73058594 31.84757812 39.46117187 31.25390625 39.18359375 C28.96076819 37.9793982 27.00080358 36.62488595 24.9375 35.0625 C24.26589844 34.55847656 23.59429687 34.05445313 22.90234375 33.53515625 C21.14053534 32.11340942 19.58527754 30.61199571 18 29 C16.68036291 27.98199424 15.34990354 26.97751635 14 26 C13.34 26.33 12.68 26.66 12 27 C11.79375 26.278125 11.5875 25.55625 11.375 24.8125 C10.17195444 21.77357266 10.17195444 21.77357266 7.125 20 C2.23324377 16.27123483 1.2456036 9.73710362 0 4 C0 2.68 0 1.36 0 0 Z " fill="#483D29" transform="translate(14,21)"/>
<path d="M0 0 C-0.33 1.32 -0.66 2.64 -1 4 C-0.01 4 0.98 4 2 4 C2 3.34 2 2.68 2 2 C5.01031744 1.06576355 5.86650268 0.95550089 9 2 C9.66 2.66 10.32 3.32 11 4 C13.5417707 4.16671852 13.5417707 4.16671852 16 4 C16.33 4 16.66 4 17 4 C17.66 5.32 18.32 6.64 19 8 C17.56879256 8.55808089 16.12969645 9.09596462 14.6875 9.625 C13.88699219 9.92664063 13.08648437 10.22828125 12.26171875 10.5390625 C11.51535156 10.69117188 10.76898438 10.84328125 10 11 C9.01 10.34 8.02 9.68 7 9 C3.75150023 10.72226496 3.75150023 10.72226496 3 14 C4.65 14 6.3 14 8 14 C8.33 13.34 8.66 12.68 9 12 C9 12.66 9 13.32 9 14 C11.475 14.99 11.475 14.99 14 16 C14 16.66 14 17.32 14 18 C14.886875 18.144375 15.77375 18.28875 16.6875 18.4375 C21.4267588 20.67299944 23.00842836 24.27662655 25 29 C25 29.66 25 30.32 25 31 C16.57142857 33.28571429 16.57142857 33.28571429 12 33 C11.05598958 31.20963542 10.11197917 29.41927083 9.16796875 27.62890625 C8.00980201 25.67732013 8.00980201 25.67732013 5 25 C4.67 25.66 4.34 26.32 4 27 C1.96166576 25.7260411 -0.03852126 24.38938077 -2 23 C-2 22.34 -2 21.68 -2 21 C-2.5775 20.71125 -3.155 20.4225 -3.75 20.125 C-6.875 18.5625 -6.875 18.5625 -10 17 C-10 16.34 -10 15.68 -10 15 C-10.85335937 14.896875 -11.70671875 14.79375 -12.5859375 14.6875 C-16.30565016 13.93845031 -19.21881966 12.65921665 -22.625 11 C-27.64947037 8.53407604 -27.64947037 8.53407604 -33 7 C-33 6.34 -33 5.68 -33 5 C-32.26362305 4.88406494 -31.52724609 4.76812988 -30.76855469 4.64868164 C-27.42874224 4.12180016 -24.08936963 3.59218047 -20.75 3.0625 C-19.59113281 2.88009766 -18.43226562 2.69769531 -17.23828125 2.50976562 C-16.12324219 2.33251953 -15.00820312 2.15527344 -13.859375 1.97265625 C-12.83295898 1.81031494 -11.80654297 1.64797363 -10.74902344 1.48071289 C-8.09018239 1.05629314 -8.09018239 1.05629314 -5.88378906 0.43920898 C-4 0 -4 0 0 0 Z " fill="#DEDDDB" transform="translate(124,118)"/>
<path d="M0 0 C-1.46573198 3.78306242 -3.33402498 5.1328299 -6.8125 7.125 C-7.66457031 7.62257813 -8.51664062 8.12015625 -9.39453125 8.6328125 C-12 10 -12 10 -14.7734375 11.015625 C-15.50820312 11.34046875 -16.24296875 11.6653125 -17 12 C-17.89386164 14.54775306 -17.89386164 14.54775306 -18 17 C-18.99 17 -19.98 17 -21 17 C-20.67 15.68 -20.34 14.36 -20 13 C-21.09054688 13.27714844 -22.18109375 13.55429688 -23.3046875 13.83984375 C-52.46205414 20.97902432 -52.46205414 20.97902432 -66.5859375 12.66015625 C-72.22242145 9.91930307 -77.77008582 9.93372432 -84 10 C-84 9.67 -84 9.34 -84 9 C-82.48539185 8.97812622 -82.48539185 8.97812622 -80.94018555 8.95581055 C-54.05177644 8.53835723 -25.62765427 0 0 0 Z " fill="#A19F99" transform="translate(144,105)"/>
<path d="M0 0 C0.495 1.485 0.495 1.485 1 3 C-4.42498404 13.5459819 -19.23096091 18.59916134 -29.6328125 22.50390625 C-32.38881542 23.08148442 -34.30177832 22.72496704 -37 22 C-36.25 18.625 -36.25 18.625 -35 15 C-32.9375 13.6875 -32.9375 13.6875 -31 13 C-30.67 12.34 -30.34 11.68 -30 11 C-21.12034828 5.11464944 -10.77796052 -0.24495365 0 0 Z " fill="#4B3F2C" transform="translate(166,86)"/>
<path d="M0 0 C0.92941406 -0.00515625 1.85882813 -0.0103125 2.81640625 -0.015625 C5.4929462 0.25561899 7.14188282 0.88883405 9.4375 2.25 C6.44268135 6.47797927 6.44268135 6.47797927 4.4375 8.25 C1.125 8.625 1.125 8.625 -1.5625 8.25 C-1.8925 9.24 -2.2225 10.23 -2.5625 11.25 C-4.3828125 11.69921875 -4.3828125 11.69921875 -6.6875 11.9375 C-11.8113394 12.882437 -13.88354284 15.21730351 -16.95703125 19.27734375 C-18.65366862 21.36201983 -20.30719351 22.79525869 -22.5625 24.25 C-25.59262552 24.15530858 -26.5582654 23.25388172 -28.8125 21.1875 C-29.39 20.548125 -29.9675 19.90875 -30.5625 19.25 C-29.32692705 15.54328114 -28.41344294 15.36725168 -25.0625 13.5625 C-20.3405544 10.8671405 -16.56570427 7.7577925 -12.66796875 3.984375 C-8.69475646 0.71145059 -5.07089639 -0.02821083 0 0 Z " fill="#483D29" transform="translate(188.5625,46.75)"/>
<path d="M0 0 C3.78570414 1.26190138 4.21831571 2.54855815 6.1875 5.9375 C6.71730469 6.83339844 7.24710938 7.72929687 7.79296875 8.65234375 C9 11 9 11 9 13 C9.84304687 12.97679687 10.68609375 12.95359375 11.5546875 12.9296875 C13.19824219 12.90261719 13.19824219 12.90261719 14.875 12.875 C16.51082031 12.84019531 16.51082031 12.84019531 18.1796875 12.8046875 C21 13 21 13 23 15 C24.64991582 15.70710678 26.31562256 16.37943989 28 17 C28 17.99 28 18.98 28 20 C27.401875 19.67 26.80375 19.34 26.1875 19 C23.94613529 17.79212012 23.94613529 17.79212012 21 18 C18.8125 17 18.8125 17 17 16 C17.515625 16.598125 18.03125 17.19625 18.5625 17.8125 C19.036875 18.534375 19.51125 19.25625 20 20 C19.505 21.485 19.505 21.485 19 23 C18.505 22.01 18.505 22.01 18 21 C17.01 20.67 16.02 20.34 15 20 C14.505 19.01 14.505 19.01 14 18 C9.89224871 16.2804762 6.43949918 15.61395659 2 16 C0.65909241 16.65129797 -0.67592331 17.31513275 -2 18 C-2.99 17.67 -3.98 17.34 -5 17 C-4.67 18.32 -4.34 19.64 -4 21 C-3.31035156 20.94199219 -2.62070313 20.88398438 -1.91015625 20.82421875 C5.44103299 20.471281 9.96014478 21.82429763 16 26 C15.67 26.66 15.34 27.32 15 28 C11.12123691 27.13805265 7.55194274 25.77597137 4 24 C4 24.99 4 25.98 4 27 C4.99 27.33 5.98 27.66 7 28 C7.33 28.99 7.66 29.98 8 31 C7.34 31 6.68 31 6 31 C5.67 30.34 5.34 29.68 5 29 C4.01 28.67 3.02 28.34 2 28 C2 27.34 2 26.68 2 26 C-2.77540797 25.04491841 -7.15378951 24.92183531 -12 25 C-15 25 -18 25 -21 25 C-20 23 -20 23 -16.75 21.875 C-13.58902489 21.13743914 -11.19448999 20.92289162 -8 21 C-8.42152344 20.32453125 -8.84304687 19.6490625 -9.27734375 18.953125 C-9.82519531 18.06109375 -10.37304688 17.1690625 -10.9375 16.25 C-11.48277344 15.36828125 -12.02804688 14.4865625 -12.58984375 13.578125 C-13.82715712 11.31600083 -14.53590513 9.51433675 -15 7 C-13.1875 7.1875 -13.1875 7.1875 -11 8 C-8 12.17857143 -8 12.17857143 -8 15 C-3.65815798 14.81535634 -3.65815798 14.81535634 0 13 C1.65 13 3.3 13 5 13 C2.03 7.06 2.03 7.06 -1 1 C-0.67 0.67 -0.34 0.34 0 0 Z " fill="#B59D5B" transform="translate(144,136)"/>
<path d="M0 0 C0.70125 0.45375 1.4025 0.9075 2.125 1.375 C5.02984591 3.01686943 7.8139348 4.03677099 11 5 C11 5.99 11 6.98 11 8 C12.546875 7.938125 12.546875 7.938125 14.125 7.875 C17.92197972 7.99748322 20.54122905 8.47170586 24 10 C24.66 10.99 25.32 11.98 26 13 C21.76006665 14.56679287 17.94249319 15.36305539 13.4375 15.6875 C12.34308594 15.77386719 11.24867188 15.86023438 10.12109375 15.94921875 C7.17716214 15.99711751 4.86025874 15.62103477 2 15 C-0.43505237 14.78301513 -2.87301384 14.59709255 -5.3125 14.4375 C-6.56675781 14.35371094 -7.82101563 14.26992188 -9.11328125 14.18359375 C-10.06589844 14.12300781 -11.01851562 14.06242187 -12 14 C-11.67 12.68 -11.34 11.36 -11 10 C-9.02 10.495 -9.02 10.495 -7 11 C-6.773125 10.113125 -6.54625 9.22625 -6.3125 8.3125 C-4.82811487 4.56619468 -2.97596515 2.66270566 0 0 Z " fill="#7C704F" transform="translate(198,49)"/>
<path d="M0 0 C0.53625 0.37125 1.0725 0.7425 1.625 1.125 C1.625 1.785 1.625 2.445 1.625 3.125 C-9.03963421 6.71696324 -19.80417843 9.5310119 -30.76733398 12.06884766 C-35.73605375 13.22371192 -40.53816735 14.49551827 -45.375 16.125 C-46.99219629 16.38711438 -48.61842789 16.60167526 -50.25 16.75 C-51.03117187 16.82476562 -51.81234375 16.89953125 -52.6171875 16.9765625 C-53.48730469 17.05003906 -53.48730469 17.05003906 -54.375 17.125 C-54.375 17.785 -54.375 18.445 -54.375 19.125 C-57.15925857 20.51712929 -59.15652932 20.02448061 -62.25 19.75 C-63.40628906 19.65074219 -64.56257813 19.55148438 -65.75390625 19.44921875 C-66.94886719 19.34222656 -68.14382812 19.23523438 -69.375 19.125 C-71.64574225 18.93640015 -73.91656946 18.74881892 -76.1875 18.5625 C-77.91670273 18.41709485 -79.64588373 18.27142967 -81.375 18.125 C-81.375 17.795 -81.375 17.465 -81.375 17.125 C-80.25810791 17.02010254 -80.25810791 17.02010254 -79.11865234 16.91308594 C-61.36554279 15.40497923 -61.36554279 15.40497923 -44.10546875 11.296875 C-37.79011778 9.31299511 -31.33304529 7.86120331 -24.89770508 6.3190918 C-18.03017869 4.64056293 -11.67938433 2.4594629 -5.125 -0.1875 C-2.375 -0.875 -2.375 -0.875 0 0 Z " fill="#4B3D28" transform="translate(93.375,91.875)"/>
<path d="M0 0 C0.33 0.66 0.66 1.32 1 2 C1.66 2.33 2.32 2.66 3 3 C2.814375 3.639375 2.62875 4.27875 2.4375 4.9375 C2.293125 5.618125 2.14875 6.29875 2 7 C2.33 7.33 2.66 7.66 3 8 C3 8.66 3 9.32 3 10 C3.66 10.66 4.32 11.32 5 12 C4.34 12.639375 3.68 13.27875 3 13.9375 C0.31778447 18.04464253 0.62618026 21.23379829 1 26 C-1.625 27.3125 -1.625 27.3125 -5 28 C-8.1875 25.6875 -8.1875 25.6875 -11 23 C-13.92824652 22.02391783 -15.95613276 21.91773332 -19 22 C-18.75 20.125 -18.75 20.125 -18 18 C-16.1875 16.625 -16.1875 16.625 -14 16 C-12.66666667 16.66666667 -11.33333333 17.33333333 -10 18 C-7.91666667 17.16666667 -7.91666667 17.16666667 -6 16 C-5.01 16 -4.02 16 -3 16 C-5.6855594 13.3144406 -8.37621328 12.93950026 -12 12 C-10.63016497 8.83884224 -10.0109362 8.0072908 -7 6 C-6.01 6.99 -5.02 7.98 -4 9 C-2.00902154 6.01353231 -1.05875074 3.40312738 0 0 Z " fill="#A6A4A3" transform="translate(146,110)"/>
<path d="M0 0 C0.144375 1.2375 0.28875 2.475 0.4375 3.75 C0.78688502 6.56504499 1.20379366 9.2701497 2 12 C-1.33333333 12 -4.66666667 12 -8 12 C-8.33 10.68 -8.66 9.36 -9 8 C-10.32 8 -11.64 8 -13 8 C-13 8.99 -13 9.98 -13 11 C-15.97 10.505 -15.97 10.505 -19 10 C-19.33 10.66 -19.66 11.32 -20 12 C-24.29 10.35 -28.58 8.7 -33 7 C-33 6.34 -33 5.68 -33 5 C-32.26362305 4.88406494 -31.52724609 4.76812988 -30.76855469 4.64868164 C-27.42874224 4.12180016 -24.08936963 3.59218047 -20.75 3.0625 C-19.59113281 2.88009766 -18.43226562 2.69769531 -17.23828125 2.50976562 C-16.12324219 2.33251953 -15.00820312 2.15527344 -13.859375 1.97265625 C-12.83295898 1.81031494 -11.80654297 1.64797363 -10.74902344 1.48071289 C-8.09018239 1.05629314 -8.09018239 1.05629314 -5.88378906 0.43920898 C-4 0 -4 0 0 0 Z " fill="#D4D3D1" transform="translate(124,118)"/>
<path d="M0 0 C2.475 0.99 2.475 0.99 5 2 C5 2.66 5 3.32 5 4 C5.886875 4.144375 6.77375 4.28875 7.6875 4.4375 C12.4267588 6.67299944 14.00842836 10.27662655 16 15 C16 15.66 16 16.32 16 17 C7.57142857 19.28571429 7.57142857 19.28571429 3 19 C-0.33333211 13.63768312 -0.95898837 8.27477876 -1 2 C-0.67 1.34 -0.34 0.68 0 0 Z " fill="#F0ECDD" transform="translate(133,132)"/>
<path d="M0 0 C4.92980953 2.00844092 8.09403383 5.64105074 11 10 C4.04130435 18.51304348 4.04130435 18.51304348 0 21 C-2.8125 20.75 -2.8125 20.75 -5 20 C-4.814375 19.236875 -4.62875 18.47375 -4.4375 17.6875 C-3.77180827 14.91032625 -3.77180827 14.91032625 -5 12 C-4.01 12 -3.02 12 -2 12 C-2.66 11.67 -3.32 11.34 -4 11 C-3.91291331 9.54054712 -3.80473093 8.08234132 -3.6875 6.625 C-3.62949219 5.81289062 -3.57148438 5.00078125 -3.51171875 4.1640625 C-3 2 -3 2 0 0 Z " fill="#DCDCD9" transform="translate(161,95)"/>
<path d="M0 0 C2.39073445 3.82517513 2.55966552 7.59665524 3 12 C4.65 12 6.3 12 8 12 C8 9.36 8 6.72 8 4 C8.33 4 8.66 4 9 4 C9 7.63 9 11.26 9 15 C6.75390625 14.96744792 4.5078125 14.93489583 2.26171875 14.90234375 C-0.16861334 14.90342145 -0.16861334 14.90342145 -3 16 C-8.69620253 13.60759494 -8.69620253 13.60759494 -10 11 C-10.45371143 3.85404504 -10.45371143 3.85404504 -8.9375 1 C-5.97912322 -0.52690415 -3.26283401 -0.18468872 0 0 Z " fill="#8D8D8D" transform="translate(96,192)"/>
<path d="M0 0 C3.78570414 1.26190138 4.21831571 2.54855815 6.1875 5.9375 C6.71730469 6.83339844 7.24710938 7.72929687 7.79296875 8.65234375 C9 11 9 11 9 13 C9.84304687 12.97679687 10.68609375 12.95359375 11.5546875 12.9296875 C13.19824219 12.90261719 13.19824219 12.90261719 14.875 12.875 C16.51082031 12.84019531 16.51082031 12.84019531 18.1796875 12.8046875 C21 13 21 13 23 15 C24.64991582 15.70710678 26.31562256 16.37943989 28 17 C28 17.99 28 18.98 28 20 C27.401875 19.67 26.80375 19.34 26.1875 19 C23.94613529 17.79212012 23.94613529 17.79212012 21 18 C18.8125 17 18.8125 17 17 16 C17.515625 16.598125 18.03125 17.19625 18.5625 17.8125 C19.036875 18.534375 19.51125 19.25625 20 20 C19.67 20.99 19.34 21.98 19 23 C18.67 22.34 18.34 21.68 18 21 C17.01 20.67 16.02 20.34 15 20 C14.67 19.34 14.34 18.68 14 18 C9.89224871 16.2804762 6.43949918 15.61395659 2 16 C1.01 16.556875 1.01 16.556875 0 17.125 C-2 18 -2 18 -5.25 17.125 C-6.1575 16.75375 -7.065 16.3825 -8 16 C-6 14 -6 14 -3.4375 13.9375 C-2.633125 13.958125 -1.82875 13.97875 -1 14 C-0.67 13.67 -0.34 13.34 0 13 C1.65 13 3.3 13 5 13 C2.03 7.06 2.03 7.06 -1 1 C-0.67 0.67 -0.34 0.34 0 0 Z " fill="#917B4C" transform="translate(144,136)"/>
<path d="M0 0 C4.02376035 0.37960003 6.68230868 1.57000816 10.3125 3.3125 C10.3125 3.9725 10.3125 4.6325 10.3125 5.3125 C13.2825 5.8075 13.2825 5.8075 16.3125 6.3125 C16.3125 7.3025 16.3125 8.2925 16.3125 9.3125 C15.6525 9.3125 14.9925 9.3125 14.3125 9.3125 C14.6425 10.6325 14.9725 11.9525 15.3125 13.3125 C13.9925 13.6425 12.6725 13.9725 11.3125 14.3125 C10.9825 13.3225 10.6525 12.3325 10.3125 11.3125 C4.07779814 7.38694697 -1.3942735 6.58063333 -8.6875 6.3125 C-9.3475 4.6625 -10.0075 3.0125 -10.6875 1.3125 C-9.264375 1.621875 -9.264375 1.621875 -7.8125 1.9375 C-6.78125 2.06125 -5.75 2.185 -4.6875 2.3125 C-2.6875 0.3125 -2.6875 0.3125 0 0 Z " fill="#F5EDD1" transform="translate(148.6875,150.6875)"/>
<path d="M0 0 C7.93522067 5.65218232 15.1610184 12.06690398 22 19 C20.5882217 19.53394179 19.17029756 20.05165104 17.75 20.5625 C16.96109375 20.85253906 16.1721875 21.14257812 15.359375 21.44140625 C11.46666695 22.36302421 11.46666695 22.36302421 9 21 C7.78531159 18.5379543 6.83110326 16.26232987 5.9375 13.6875 C4.38841471 9.3689625 2.89374433 5.61503371 0 2 C0 1.34 0 0.68 0 0 Z " fill="#A5A29B" transform="translate(45,71)"/>
<path d="M0 0 C0.66 0 1.32 0 2 0 C2 2.64 2 5.28 2 8 C4.46800047 6.84826645 6.04783565 5.95216435 8 4 C7.79375 4.721875 7.5875 5.44375 7.375 6.1875 C6.94047789 9.44641585 7.58319331 11.08304504 9 14 C8.34 14 7.68 14 7 14 C6.67 13.01 6.34 12.02 6 11 C5.01 10.67 4.02 10.34 3 10 C3 11.65 3 13.3 3 15 C2.46375 14.835 1.9275 14.67 1.375 14.5 C-1.11534441 13.89055693 -1.11534441 13.89055693 -4.1875 14 C-5.115625 14 -6.04375 14 -7 14 C-8 13 -8 13 -8.1875 9.5625 C-8 6 -8 6 -6 4 C-3.375 3.875 -3.375 3.875 -1 4 C-0.67 2.68 -0.34 1.36 0 0 Z " fill="#A0A0A0" transform="translate(115,192)"/>
<path d="M0 0 C0.99 1.485 0.99 1.485 2 3 C-2.35590568 4.62849969 -6.23934612 5.34118446 -10.875 5.625 C-12.02742187 5.69976562 -13.17984375 5.77453125 -14.3671875 5.8515625 C-15.23601562 5.90054688 -16.10484375 5.94953125 -17 6 C-17.33 5.01 -17.66 4.02 -18 3 C-19.65 3 -21.3 3 -23 3 C-16.9124082 -3.0875918 -7.56908084 -3.34447758 0 0 Z " fill="#CCBA68" transform="translate(222,59)"/>
<path d="M0 0 C-0.66 1.98 -1.32 3.96 -2 6 C-4.31 6.33 -6.62 6.66 -9 7 C-9 7.33 -9 7.66 -9 8 C-15.93 7.67 -22.86 7.34 -30 7 C-24.794799 4.3973995 -19.50397055 3.21151315 -13.875 1.8125 C-12.76511719 1.52697266 -11.65523437 1.24144531 -10.51171875 0.94726562 C-9.45339844 0.68236328 -8.39507812 0.41746094 -7.3046875 0.14453125 C-6.33515137 -0.09934326 -5.36561523 -0.34321777 -4.36669922 -0.59448242 C-2 -1 -2 -1 0 0 Z " fill="#493F27" transform="translate(107,106)"/>
<path d="M0 0 C0.33 0.66 0.66 1.32 1 2 C1.66 2.33 2.32 2.66 3 3 C2.814375 3.639375 2.62875 4.27875 2.4375 4.9375 C2.293125 5.618125 2.14875 6.29875 2 7 C2.33 7.33 2.66 7.66 3 8 C3 8.66 3 9.32 3 10 C3.66 10.66 4.32 11.32 5 12 C1.85444407 14.38299691 0.44724823 15.03138584 -3.5625 14.75 C-8.94117647 13.57647059 -8.94117647 13.57647059 -11 13 C-11 11.68 -11 10.36 -11 9 C-9 7.25 -9 7.25 -7 6 C-6.01 6.99 -5.02 7.98 -4 9 C-2.00902154 6.01353231 -1.05875074 3.40312738 0 0 Z " fill="#BDBCBA" transform="translate(146,110)"/>
<path d="M0 0 C-6.2493939 5.32425704 -13.24340147 9.27298793 -21 12 C-21.99 11.67 -22.98 11.34 -24 11 C-22.35 10.01 -20.7 9.02 -19 8 C-19.33 8 -19.66 8 -20 8 C-20.99 8 -21.98 8 -23 8 C-23 7.34 -23 6.68 -23 6 C-21.02 5.01 -19.04 4.02 -17 3 C-17 2.01 -17 1.02 -17 0 C-15.68 1.32 -14.36 2.64 -13 4 C-13 3.34 -13 2.68 -13 2 C-10.03 2.495 -10.03 2.495 -7 3 C-6.67 2.01 -6.34 1.02 -6 0 C-3.42525708 -0.99667468 -2.51072708 -1.25536354 0 0 Z " fill="#423825" transform="translate(163,94)"/>
<path d="M0 0 C3.66963901 0.91740975 5.39220179 2.14641694 7.3125 5.3125 C8.87301702 8.30819131 9.41413587 10.58337904 9 14 C7.02 14.99 7.02 14.99 5 16 C4.34 15.01 3.68 14.02 3 13 C2.01 12.34 1.02 11.68 0 11 C-0.546875 8.90625 -0.546875 8.90625 -0.75 6.5 C-0.82734375 5.7059375 -0.9046875 4.911875 -0.984375 4.09375 C-1 2 -1 2 0 0 Z " fill="#F2F3F1" transform="translate(133,132)"/>
<path d="M0 0 C1.29608947 0.93137592 2.58671632 1.8703566 3.875 2.8125 C4.59429688 3.33457031 5.31359375 3.85664063 6.0546875 4.39453125 C8 6 8 6 10 9 C9.67 9.99 9.34 10.98 9 12 C9 12.99 9 13.98 9 15 C8.68911632 16.67099977 8.35919668 18.33871537 8 20 C3.88777793 17.57240672 3.03875964 15.06804461 1.75 10.5625 C1.41484375 9.42941406 1.0796875 8.29632813 0.734375 7.12890625 C0 4 0 4 0 0 Z " fill="#494030" transform="translate(14,21)"/>
<path d="M0 0 C0 0.99 0 1.98 0 3 C-3.26742273 3.86759552 -6.53936481 4.71673443 -9.8125 5.5625 C-10.74126953 5.80935547 -11.67003906 6.05621094 -12.62695312 6.31054688 C-13.9659668 6.65375977 -13.9659668 6.65375977 -15.33203125 7.00390625 C-16.15421143 7.21861572 -16.9763916 7.4333252 -17.82348633 7.65454102 C-20 8 -20 8 -23 7 C-22.67 6.01 -22.34 5.02 -22 4 C-18.98046875 2.8671875 -18.98046875 2.8671875 -15.1875 1.875 C-13.94355469 1.54242188 -12.69960937 1.20984375 -11.41796875 0.8671875 C-10.29003906 0.58101563 -9.16210938 0.29484375 -8 0 C-7.23816406 -0.21269531 -6.47632812 -0.42539063 -5.69140625 -0.64453125 C-3.54852193 -1.09488338 -2.06126233 -0.66254861 0 0 Z " fill="#4B3E2B" transform="translate(81,102)"/>
<path d="M0 0 C2.375 0.6875 2.375 0.6875 3.375 1.6875 C3.83477011 6.97485632 3.83477011 6.97485632 2.125 9.625 C0.375 10.6875 0.375 10.6875 -1.6875 10.5 C-3.625 9.6875 -3.625 9.6875 -5.625 7.6875 C-5.9375 4.6875 -5.9375 4.6875 -5.625 1.6875 C-2.625 -0.3125 -2.625 -0.3125 0 0 Z " fill="#353535" transform="translate(140.625,196.3125)"/>
<path d="M0 0 C5.56818182 0.56818182 5.56818182 0.56818182 7 2 C7.1875 4.9375 7.1875 4.9375 7 8 C5 10 5 10 1.875 10.125 C0.451875 10.063125 0.451875 10.063125 -1 10 C-2.38125018 7.23749964 -2.19079306 5.05268901 -2 2 C-1.34 1.34 -0.68 0.68 0 0 Z " fill="#2F2F2F" transform="translate(127,196)"/>
<path d="M0 0 C0.33 0.66 0.66 1.32 1 2 C0.34 2 -0.32 2 -1 2 C-0.34 3.98 0.32 5.96 1 8 C0.34 8.66 -0.32 9.32 -1 10 C-0.67 10.99 -0.34 11.98 0 13 C-0.33 13.66 -0.66 14.32 -1 15 C-1.66 15 -2.32 15 -3 15 C-5.1875 12.6875 -5.1875 12.6875 -7 10 C-6.67 9.01 -6.34 8.02 -6 7 C-7.32 7.33 -8.64 7.66 -10 8 C-8.60344703 4.50126729 -7.28739516 3.29108169 -3.875 1.75 C-3.15054688 1.41484375 -2.42609375 1.0796875 -1.6796875 0.734375 C-1.12539062 0.49203125 -0.57109375 0.2496875 0 0 Z " fill="#D4D3D2" transform="translate(153,100)"/>
<path d="M0 0 C-4.62 1.65 -9.24 3.3 -14 5 C-13.01 6.485 -13.01 6.485 -12 8 C-13.175625 8.185625 -13.175625 8.185625 -14.375 8.375 C-17.14057822 8.79117993 -17.14057822 8.79117993 -19 11 C-22.125 11.125 -22.125 11.125 -25 11 C-24.236875 10.278125 -23.47375 9.55625 -22.6875 8.8125 C-19.95276132 6.23516959 -19.95276132 6.23516959 -18.734375 3.41015625 C-17 1 -17 1 -14.00390625 0.0390625 C-12.86824219 -0.09757812 -11.73257813 -0.23421875 -10.5625 -0.375 C-9.42941406 -0.52710938 -8.29632813 -0.67921875 -7.12890625 -0.8359375 C-4 -1 -4 -1 0 0 Z " fill="#F3EDD2" transform="translate(222,64)"/>
<path d="M0 0 C2.475 0.495 2.475 0.495 5 1 C5 1.66 5 2.32 5 3 C7.97 3.495 7.97 3.495 11 4 C11 4.99 11 5.98 11 7 C10.34 7 9.68 7 9 7 C9.33 8.32 9.66 9.64 10 11 C8.68 11.33 7.36 11.66 6 12 C5.67 11.01 5.34 10.02 5 9 C4.34 8.7525 3.68 8.505 3 8.25 C2.34 7.8375 1.68 7.425 1 7 C0.25 3.375 0.25 3.375 0 0 Z " fill="#EEEBE4" transform="translate(154,153)"/>
<path d="M0 0 C0.66 0.33 1.32 0.66 2 1 C1.67 2.65 1.34 4.3 1 6 C-5.625 7.125 -5.625 7.125 -9 6 C-9 4.68 -9 3.36 -9 2 C-5.54337669 -0.30441554 -4.05142119 -0.25860135 0 0 Z " fill="#9C8E78" transform="translate(207,53)"/>
<path d="M0 0 C6.0546875 -0.1953125 6.0546875 -0.1953125 8 0 C8.66 0.66 9.32 1.32 10 2 C11.64991582 2.70710678 13.31562256 3.37943989 15 4 C15 4.99 15 5.98 15 7 C14.401875 6.67 13.80375 6.34 13.1875 6 C10.94613529 4.79212012 10.94613529 4.79212012 8 5 C5.8125 4 5.8125 4 4 3 C4.7734375 3.8971875 4.7734375 3.8971875 5.5625 4.8125 C6.036875 5.534375 6.51125 6.25625 7 7 C6.67 7.99 6.34 8.98 6 10 C5.67 9.34 5.34 8.68 5 8 C4.01 7.67 3.02 7.34 2 7 C0 4 0 4 0 0 Z " fill="#857348" transform="translate(157,149)"/>
<path d="M0 0 C0.66 0.66 1.32 1.32 2 2 C1.625 4.625 1.625 4.625 1 7 C-4.75 8 -4.75 8 -7 8 C-7.99 8.33 -8.98 8.66 -10 9 C-10.99 9 -11.98 9 -13 9 C-11.7820245 5.34607349 -10.85603494 5.04168301 -7.5625 3.25 C-6.75941406 2.80140625 -5.95632812 2.3528125 -5.12890625 1.890625 C-4.07509766 1.44976562 -4.07509766 1.44976562 -3 1 C-2.34 1.33 -1.68 1.66 -1 2 C-0.67 1.34 -0.34 0.68 0 0 Z " fill="#49422F" transform="translate(171,57)"/>
<path d="M0 0 C0.66 0 1.32 0 2 0 C1.03603575 5.20540698 0.12319499 9.59913433 -3 14 C-4.32 12.68 -5.64 11.36 -7 10 C-9.0245738 11.93254772 -10.42105792 13.63158688 -12 16 C-12 13.69 -12 11.38 -12 9 C-11.01 9 -10.02 9 -9 9 C-6.82967524 7.56009377 -6.82967524 7.56009377 -5 6 C-5 6.66 -5 7.32 -5 8 C-4.34 8 -3.68 8 -3 8 C-1.92474806 5.34771188 -0.90543849 2.71631546 0 0 Z " fill="#E3E2E1" transform="translate(145,107)"/>
<path d="M0 0 C-2.81000774 1.87333849 -4.69068296 2.61679646 -7.88671875 3.5078125 C-9.2934082 3.90419922 -9.2934082 3.90419922 -10.72851562 4.30859375 C-11.70498047 4.57800781 -12.68144531 4.84742187 -13.6875 5.125 C-15.16959961 5.54072266 -15.16959961 5.54072266 -16.68164062 5.96484375 C-19.11980447 6.64800077 -21.55924114 7.32618448 -24 8 C-24 8.33 -24 8.66 -24 9 C-26.31 9 -28.62 9 -31 9 C-30.34 8.67 -29.68 8.34 -29 8 C-29 7.34 -29 6.68 -29 6 C-28.05898438 5.80664062 -27.11796875 5.61328125 -26.1484375 5.4140625 C-24.90320312 5.15367188 -23.65796875 4.89328125 -22.375 4.625 C-21.14523438 4.36976562 -19.91546875 4.11453125 -18.6484375 3.8515625 C-15.33932465 3.07919997 -12.20301789 2.12551141 -9 1 C-5.91955413 0.06653155 -3.21837539 -0.08939932 0 0 Z " fill="#413220" transform="translate(68,103)"/>
<path d="M0 0 C0.98484375 0.00902344 1.9696875 0.01804687 2.984375 0.02734375 C4.10585937 0.04474609 4.10585937 0.04474609 5.25 0.0625 C4.59 2.0425 3.93 4.0225 3.25 6.0625 C2.59 6.0625 1.93 6.0625 1.25 6.0625 C1.25 5.0725 1.25 4.0825 1.25 3.0625 C0.54875 3.43375 -0.1525 3.805 -0.875 4.1875 C-4.51443651 5.29515459 -6.30700411 4.50375409 -9.75 3.0625 C-9.75 2.4025 -9.75 1.7425 -9.75 1.0625 C-6.43929162 0.06140485 -3.44915231 -0.04106134 0 0 Z " fill="#DBDBD8" transform="translate(100.75,121.9375)"/>
<path d="M0 0 C1.32 0.66 2.64 1.32 4 2 C4 2.99 4 3.98 4 5 C2.68 5 1.36 5 0 5 C0 5.99 0 6.98 0 8 C0.99 7.67 1.98 7.34 3 7 C2.67 7.99 2.34 8.98 2 10 C0.02 10.33 -1.96 10.66 -4 11 C-3.91291331 9.54054712 -3.80473093 8.08234132 -3.6875 6.625 C-3.62949219 5.81289062 -3.57148438 5.00078125 -3.51171875 4.1640625 C-3 2 -3 2 0 0 Z " fill="#DDD8D3" transform="translate(161,95)"/>
<path d="M0 0 C0.99 0.33 1.98 0.66 3 1 C3 1.66 3 2.32 3 3 C4.32 2.67 5.64 2.34 7 2 C7.12375 2.61875 7.2475 3.2375 7.375 3.875 C7.87197356 6.19120832 7.87197356 6.19120832 10 8 C9.625 10.125 9.625 10.125 9 12 C7.8944811 11.06409496 6.79064547 10.12620142 5.6875 9.1875 C5.07261719 8.66542969 4.45773438 8.14335938 3.82421875 7.60546875 C2.14575321 6.12827531 0.56117966 4.59960869 -1 3 C-0.67 2.01 -0.34 1.02 0 0 Z " fill="#EBEAE5" transform="translate(71,67)"/>
<path d="M0 0 C-0.66 0.66 -1.32 1.32 -2 2 C-1.01 2.66 -0.02 3.32 1 4 C-2.75 5.125 -2.75 5.125 -5 4 C-5 3.34 -5 2.68 -5 2 C-5.89203125 2.16757813 -6.7840625 2.33515625 -7.703125 2.5078125 C-9.45882812 2.81332031 -9.45882812 2.81332031 -11.25 3.125 C-12.99023438 3.43824219 -12.99023438 3.43824219 -14.765625 3.7578125 C-18.03554316 4.00266144 -19.32492834 3.78779541 -22 2 C-20.95199219 1.86722656 -19.90398437 1.73445313 -18.82421875 1.59765625 C-17.44529222 1.41942765 -16.06638707 1.24103359 -14.6875 1.0625 C-13.65206055 0.93198242 -13.65206055 0.93198242 -12.59570312 0.79882812 C-1.91499256 -0.59430804 -1.91499256 -0.59430804 0 0 Z M-20 4 C-18 5 -18 5 -18 5 Z " fill="#9B968C" transform="translate(132,110)"/>
<path d="M0 0 C1.2375 0.495 1.2375 0.495 2.5 1 C2.5 1.66 2.5 2.32 2.5 3 C1.85933594 2.90460938 1.21867187 2.80921875 0.55859375 2.7109375 C-5.09859035 1.98587367 -9.14097591 2.0194911 -14.5 4 C-15.16 3.34 -15.82 2.68 -16.5 2 C-11.16245997 -2.00315503 -6.12576349 -1.75021814 0 0 Z " fill="#F1ECCE" transform="translate(143.5,161)"/>
<path d="M0 0 C1.29608947 0.93137592 2.58671632 1.8703566 3.875 2.8125 C4.59429688 3.33457031 5.31359375 3.85664063 6.0546875 4.39453125 C8 6 8 6 10 9 C9.34 9.66 8.68 10.32 8 11 C5.5 10.875 5.5 10.875 3 10 C0.78469444 7.0093375 0.49459952 3.62706314 0 0 Z " fill="#4C453B" transform="translate(14,21)"/>
<path d="M0 0 C0.33 0 0.66 0 1 0 C1 2.64 1 5.28 1 8 C3.46800047 6.84826645 5.04783565 5.95216435 7 4 C6.79375 4.721875 6.5875 5.44375 6.375 6.1875 C5.94047789 9.44641585 6.58319331 11.08304504 8 14 C7.34 14 6.68 14 6 14 C5.67 13.01 5.34 12.02 5 11 C4.01 10.67 3.02 10.34 2 10 C2 11.65 2 13.3 2 15 C1.34 15 0.68 15 0 15 C0 10.05 0 5.1 0 0 Z " fill="#373737" transform="translate(116,192)"/>
<path d="M0 0 C3.69790046 1.23263349 3.9354846 2.20052451 5.6875 5.5625 C6.12449219 6.38878906 6.56148437 7.21507812 7.01171875 8.06640625 C7.33785156 8.70449219 7.66398438 9.34257812 8 10 C6.68 10.33 5.36 10.66 4 11 C2.35 7.7 0.7 4.4 -1 1 C-0.67 0.67 -0.34 0.34 0 0 Z " fill="#908158" transform="translate(144,136)"/>
<path d="M0 0 C5.61 0 11.22 0 17 0 C13.47844036 2.34770643 11.49228157 2.37669614 7.3125 2.625 C6.13300781 2.69976562 4.95351562 2.77453125 3.73828125 2.8515625 C2.83464844 2.90054688 1.93101562 2.94953125 1 3 C0.67 2.01 0.34 1.02 0 0 Z " fill="#AB9633" transform="translate(204,62)"/>
<path d="M0 0 C1.19109375 -0.00386719 1.19109375 -0.00386719 2.40625 -0.0078125 C4.5 0.125 4.5 0.125 6.5 1.125 C6.5 1.785 6.5 2.445 6.5 3.125 C1.22 3.125 -4.06 3.125 -9.5 3.125 C-5.88367192 0.71411461 -4.26396753 -0.01384405 0 0 Z " fill="#DBBC3E" transform="translate(213.5,58.875)"/>
<path d="M0 0 C1.67542976 0.28604898 3.34385343 0.61781233 5 1 C5.33 1.99 5.66 2.98 6 4 C5.01 5.485 5.01 5.485 4 7 C2.68 6.67 1.36 6.34 0 6 C-0.38218767 4.34385343 -0.71395102 2.67542976 -1 1 C-0.67 0.67 -0.34 0.34 0 0 Z " fill="#A99E67" transform="translate(187,54)"/>
<path d="M0 0 C0.99 0.33 1.98 0.66 3 1 C3 2.98 3 4.96 3 7 C1.35 7.33 -0.3 7.66 -2 8 C-2 5.69 -2 3.38 -2 1 C-1.34 0.67 -0.68 0.34 0 0 Z " fill="#E8E8E8" transform="translate(129,197)"/>
<path d="M0 0 C0.66 0 1.32 0 2 0 C2.66 2.31 3.32 4.62 4 7 C2.02 7.66 0.04 8.32 -2 9 C-2.33 8.01 -2.66 7.02 -3 6 C-2.01 5.67 -1.02 5.34 0 5 C-0.99 4.67 -1.98 4.34 -3 4 C-1 1 -1 1 0 0 Z " fill="#A39F9B" transform="translate(143,129)"/>
<path d="M0 0 C0.99 0.33 1.98 0.66 3 1 C3 2.98 3 4.96 3 7 C1.0625 7.5625 1.0625 7.5625 -1 8 C-2 7 -2 7 -2.0625 3.9375 C-2.041875 2.968125 -2.02125 1.99875 -2 1 C-1.34 0.67 -0.68 0.34 0 0 Z " fill="#EBEBEB" transform="translate(139,197)"/>
<path d="M0 0 C1.32 0.33 2.64 0.66 4 1 C4 1.66 4 2.32 4 3 C4.66 3.66 5.32 4.32 6 5 C3.6875 6.5625 3.6875 6.5625 1 8 C0.01 7.67 -0.98 7.34 -2 7 C-1.42415568 4.61435923 -0.77772405 2.33317216 0 0 Z " fill="#BCBCBB" transform="translate(145,117)"/>
<path d="M0 0 C1.65 0.99 3.3 1.98 5 3 C3.625 4.5 3.625 4.5 2 6 C1.34 6 0.68 6 0 6 C0 6.99 0 7.98 0 9 C-0.99 9 -1.98 9 -3 9 C-2.44271087 5.65626525 -1.64826111 2.96687001 0 0 Z " fill="#7A6F60" transform="translate(198,49)"/>
<path d="M0 0 C2.4375 0.375 2.4375 0.375 5 1 C5.33 1.66 5.66 2.32 6 3 C5.34 3.66 4.68 4.32 4 5 C3.34 4.67 2.68 4.34 2 4 C2 4.66 2 5.32 2 6 C1.34 6 0.68 6 0 6 C0 6.66 0 7.32 0 8 C0.99 8.33 1.98 8.66 3 9 C2.01 9.33 1.02 9.66 0 10 C-0.66 9.34 -1.32 8.68 -2 8 C-1.67 7.34 -1.34 6.68 -1 6 C-1.66 6 -2.32 6 -3 6 C-2.67 5.01 -2.34 4.02 -2 3 C-1.01 2.67 -0.02 2.34 1 2 C0.67 1.34 0.34 0.68 0 0 Z " fill="#4E4530" transform="translate(27,35)"/>
<path d="M0 0 C0.66 0.99 1.32 1.98 2 3 C3.98 2.67 5.96 2.34 8 2 C8 1.34 8 0.68 8 0 C9.32 0.66 10.64 1.32 12 2 C8.30827405 5.53790403 4.90609405 5.59115883 0 6 C-1.125 2.25 -1.125 2.25 0 0 Z " fill="#B0A8A0" transform="translate(55,87)"/>
<path d="M0 0 C1.98 0 3.96 0 6 0 C6 0.66 6 1.32 6 2 C5.34 2 4.68 2 4 2 C4 2.99 4 3.98 4 5 C4.99 5.33 5.98 5.66 7 6 C7.33 6.99 7.66 7.98 8 9 C7.34 9 6.68 9 6 9 C5.67 8.34 5.34 7.68 5 7 C4.01 6.67 3.02 6.34 2 6 C2 5.34 2 4.68 2 4 C0.68 3.34 -0.64 2.68 -2 2 C-1.34 2 -0.68 2 0 2 C0 1.34 0 0.68 0 0 Z " fill="#A48D49" transform="translate(144,158)"/>
<path d="M0 0 C1.32 0.66 2.64 1.32 4 2 C3.34 3.32 2.68 4.64 2 6 C0.02 6 -1.96 6 -4 6 C-3.6875 4.125 -3.6875 4.125 -3 2 C-2.01 1.34 -1.02 0.68 0 0 Z " fill="#B7B6B4" transform="translate(131,126)"/>
<path d="M0 0 C2.1640625 0.0234375 2.1640625 0.0234375 4.625 0.375 C5.85089844 0.54128906 5.85089844 0.54128906 7.1015625 0.7109375 C7.72804688 0.80632812 8.35453125 0.90171875 9 1 C8.01 1.495 8.01 1.495 7 2 C7 2.66 7 3.32 7 4 C4.04335481 5.4783226 1.25770263 5.06032783 -2 5 C-2 2 -2 2 0 0 Z " fill="#514835" transform="translate(32,107)"/>
<path d="M0 0 C0.99 0.33 1.98 0.66 3 1 C3.33 0.67 3.66 0.34 4 0 C4.66 1.32 5.32 2.64 6 4 C1.545 5.485 1.545 5.485 -3 7 C-2.34 5.68 -1.68 4.36 -1 3 C-1.33 2.34 -1.66 1.68 -2 1 C-1.34 0.67 -0.68 0.34 0 0 Z " fill="#E3E2E0" transform="translate(137,122)"/>
<path d="M0 0 C2.00720923 0.28674418 4.0085944 0.61866701 6 1 C4.66666667 1.66666667 3.33333333 2.33333333 2 3 C1.071875 3.61875 1.071875 3.61875 0.125 4.25 C-3.01409174 5.35791473 -5.01096831 4.22278569 -8 3 C-6 1 -6 1 -3.4375 0.9375 C-2.2309375 0.9684375 -2.2309375 0.9684375 -1 1 C-0.67 0.67 -0.34 0.34 0 0 Z " fill="#847750" transform="translate(144,149)"/>
<path d="M0 0 C0.33 0.66 0.66 1.32 1 2 C0.34 2 -0.32 2 -1 2 C-1.33 3.32 -1.66 4.64 -2 6 C-4.64 6.66 -7.28 7.32 -10 8 C-8.60344703 4.50126729 -7.28739516 3.29108169 -3.875 1.75 C-3.15054688 1.41484375 -2.42609375 1.0796875 -1.6796875 0.734375 C-1.12539062 0.49203125 -0.57109375 0.2496875 0 0 Z " fill="#D5D1C8" transform="translate(153,100)"/>
<path d="M0 0 C1.91635217 -0.05423638 3.83314925 -0.09289963 5.75 -0.125 C7.35101563 -0.15980469 7.35101563 -0.15980469 8.984375 -0.1953125 C11.92470106 -0.00487687 13.52361878 0.47329896 16 2 C16 3.65 16 5.3 16 7 C14 6 14 6 12 3 C9.12240932 2.19663887 9.12240932 2.19663887 5.875 1.8125 C4.23144531 1.57466797 4.23144531 1.57466797 2.5546875 1.33203125 C1.29011719 1.16767578 1.29011719 1.16767578 0 1 C0 0.67 0 0.34 0 0 Z " fill="#F0ECC2" transform="translate(209,56)"/>
<path d="M0 0 C1.48555383 0.92734572 2.96327506 1.86724813 4.4375 2.8125 C5.26121094 3.33457031 6.08492187 3.85664062 6.93359375 4.39453125 C9 6 9 6 10 9 C6.22089522 9 5.53893899 8.00296038 2.8125 5.5 C2.09707031 4.8503125 1.38164063 4.200625 0.64453125 3.53125 C0.10183594 3.0259375 -0.44085938 2.520625 -1 2 C-0.67 1.34 -0.34 0.68 0 0 Z " fill="#E8E7DF" transform="translate(53,53)"/>
<path d="M0 0 C0.66 0 1.32 0 2 0 C3.35091528 2.70183055 3.33858058 5.11808206 3.5625 8.125 C3.64628906 9.22070312 3.73007813 10.31640625 3.81640625 11.4453125 C3.87699219 12.28835937 3.93757813 13.13140625 4 14 C2.35 14.66 0.7 15.32 -1 16 C-1 15.34 -1 14.68 -1 14 C-0.34 14 0.32 14 1 14 C1.05395478 12.37536158 1.09277195 10.75021459 1.125 9.125 C1.15980469 7.76761719 1.15980469 7.76761719 1.1953125 6.3828125 C1.24324836 3.81193006 1.24324836 3.81193006 -1 2 C-0.67 1.34 -0.34 0.68 0 0 Z " fill="#E0E0E0" transform="translate(94,192)"/>
<path d="M0 0 C1.65 0 3.3 0 5 0 C5 1.32 5 2.64 5 4 C4.34 4 3.68 4 3 4 C3.33 5.32 3.66 6.64 4 8 C2.68 8 1.36 8 0 8 C0.185625 7.236875 0.37125 6.47375 0.5625 5.6875 C1.22819173 2.91032625 1.22819173 2.91032625 0 0 Z " fill="#B0B0AD" transform="translate(156,107)"/>
<path d="M0 0 C-0.33 2.31 -0.66 4.62 -1 7 C-1.99 7 -2.98 7 -4 7 C-3.67 5.68 -3.34 4.36 -3 3 C-5.64 3.33 -8.28 3.66 -11 4 C-7.32740617 1.55160412 -4.45351799 0 0 0 Z " fill="#8E8E8B" transform="translate(127,115)"/>
<path d="M0 0 C0.66 0 1.32 0 2 0 C1.25 5.75 1.25 5.75 -1 8 C-4.125 8.125 -4.125 8.125 -7 8 C-6.21625 7.236875 -5.4325 6.47375 -4.625 5.6875 C-1.92742283 3.09108195 -1.92742283 3.09108195 0 0 Z " fill="#ECEAE3" transform="translate(204,67)"/>
<path d="M0 0 C0.33 0.66 0.66 1.32 1 2 C1.66 2.33 2.32 2.66 3 3 C2.65120368 6.25543229 1.97866739 7.01873107 -0.5625 9.25 C-1.366875 9.8275 -2.17125 10.405 -3 11 C-2.32829194 7.1936543 -1.27253436 3.64793184 0 0 Z " fill="#ADADAB" transform="translate(146,110)"/>
<path d="M0 0 C-3.465 1.485 -3.465 1.485 -7 3 C-7 3.33 -7 3.66 -7 4 C-9.31 4 -11.62 4 -14 4 C-13.34 3.67 -12.68 3.34 -12 3 C-12 2.34 -12 1.68 -12 1 C-10.56496445 0.63597631 -9.12683494 0.28413409 -7.6875 -0.0625 C-6.88699219 -0.25972656 -6.08648437 -0.45695312 -5.26171875 -0.66015625 C-3 -1 -3 -1 0 0 Z " fill="#382E19" transform="translate(51,108)"/>
<path d="M0 0 C3.88862987 1.26117725 5.89375599 2.45264167 8 6 C8 6.66 8 7.32 8 8 C7.34 8 6.68 8 6 8 C5.34 7.34 4.68 6.68 4 6 C3.01 5.34 2.02 4.68 1 4 C1.33 3.67 1.66 3.34 2 3 C1.34 2.67 0.68 2.34 0 2 C0 1.34 0 0.68 0 0 Z " fill="#4D4736" transform="translate(67,69)"/>
<path d="M0 0 C1.9375 0.75 1.9375 0.75 4 2 C4.75 4.125 4.75 4.125 5 6 C7.64 6 10.28 6 13 6 C13 6.33 13 6.66 13 7 C9.7 7 6.4 7 3 7 C2.01 4.69 1.02 2.38 0 0 Z " fill="#E2D7BA" transform="translate(150,142)"/>
<path d="M0 0 C0 1.32 0 2.64 0 4 C-2.64 4 -5.28 4 -8 4 C-8 3.01 -8 2.02 -8 1 C-5.10765685 0.17361624 -3.11257569 0 0 0 Z " fill="#484131" transform="translate(50,109)"/>
<path d="M0 0 C0.33 0.66 0.66 1.32 1 2 C1.66 2.33 2.32 2.66 3 3 C2.01 3.33 1.02 3.66 0 4 C-0.33 4.66 -0.66 5.32 -1 6 C-3.475 5.01 -3.475 5.01 -6 4 C-5.67 3.01 -5.34 2.02 -5 1 C-4.34 1 -3.68 1 -3 1 C-3 1.99 -3 2.98 -3 4 C-2.34 4 -1.68 4 -1 4 C-0.67 2.68 -0.34 1.36 0 0 Z " fill="#ABABAA" transform="translate(105,124)"/>
<path d="M0 0 C1.98 0 3.96 0 6 0 C5.34 1.98 4.68 3.96 4 6 C3.34 6 2.68 6 2 6 C2 5.01 2 4.02 2 3 C1.34 3 0.68 3 0 3 C0 2.01 0 1.02 0 0 Z " fill="#E1E1DE" transform="translate(100,122)"/>
<path d="M0 0 C0.33 0.66 0.66 1.32 1 2 C1.66 2.33 2.32 2.66 3 3 C2.67 3.99 2.34 4.98 2 6 C1.01 5.67 0.02 5.34 -1 5 C-1.66 5.66 -2.32 6.32 -3 7 C-3.33 5.68 -3.66 4.36 -4 3 C-2.68 2.01 -1.36 1.02 0 0 Z " fill="#D7D7D7" transform="translate(154,113)"/>
<path d="M0 0 C1.65 0 3.3 0 5 0 C5.66 1.32 6.32 2.64 7 4 C6.01 3.67 5.02 3.34 4 3 C0.84979639 3.88319294 0.84979639 3.88319294 -2 5 C-1.34 3.35 -0.68 1.7 0 0 Z " fill="#E5E3DE" transform="translate(161,99)"/>
<path d="M0 0 C-2.64 1.98 -5.28 3.96 -8 6 C-8.66 5.34 -9.32 4.68 -10 4 C-9.01 3.34 -8.02 2.68 -7 2 C-6.67 1.34 -6.34 0.68 -6 0 C-2.49056604 -1.24528302 -2.49056604 -1.24528302 0 0 Z " fill="#3D3628" transform="translate(163,94)"/>
<path d="M0 0 C0.99 0.33 1.98 0.66 3 1 C2.65120368 4.25543229 1.97866739 5.01873107 -0.5625 7.25 C-1.7690625 8.11625 -1.7690625 8.11625 -3 9 C-2.67 8.401875 -2.34 7.80375 -2 7.1875 C-0.79212012 4.94613529 -0.79212012 4.94613529 -1 2 C-0.67 1.34 -0.34 0.68 0 0 Z " fill="#6D675A" transform="translate(187,74)"/>
<path d="M0 0 C4.455 1.98 4.455 1.98 9 4 C8.67 4.66 8.34 5.32 8 6 C5.07120629 5.37240135 2.63904371 4.41377341 0 3 C0 2.01 0 1.02 0 0 Z " fill="#8D8361" transform="translate(151,158)"/>
<path d="M0 0 C-3 2 -3 2 -5 2 C-5 2.99 -5 3.98 -5 5 C-7.64 4.67 -10.28 4.34 -13 4 C-12 2 -12 2 -8.75 0.875 C-5.62299365 0.14536518 -3.17377095 -0.19234975 0 0 Z " fill="#908561" transform="translate(136,157)"/>
<path d="M0 0 C0 0.99 0 1.98 0 3 C-0.598125 2.67 -1.19625 2.34 -1.8125 2 C-4.05386471 0.79212012 -4.05386471 0.79212012 -7 1 C-8.6875 -0.5 -8.6875 -0.5 -10 -2 C-5.82412255 -3.39195915 -3.86525224 -1.82323219 0 0 Z " fill="#7B735B" transform="translate(172,153)"/>
<path d="M0 0 C3.48331435 3.01887244 4.79157144 5.56909529 6 10 C4.68 9.67 3.36 9.34 2 9 C2.66 9 3.32 9 4 9 C4 8.34 4 7.68 4 7 C3.34 7 2.68 7 2 7 C0.5393715 4.35261084 0 3.10551666 0 0 Z " fill="#F6E9C5" transform="translate(130,147)"/>
<path d="M0 0 C1.32 0.33 2.64 0.66 4 1 C4 2.32 4 3.64 4 5 C2.68 5.33 1.36 5.66 0 6 C0 4.02 0 2.04 0 0 Z " fill="#DBD9D8" transform="translate(149,104)"/>
<path d="M0 0 C0.79921875 0.01804687 1.5984375 0.03609375 2.421875 0.0546875 C3.02515625 0.07789062 3.6284375 0.10109375 4.25 0.125 C-0.87552394 2.79431006 -5.91297391 4.47875916 -11.75 4.125 C-7.61208323 1.36638882 -5.03296982 -0.14802852 0 0 Z " fill="#40321E" transform="translate(101.75,98.875)"/>
<path d="M0 0 C-0.66 1.65 -1.32 3.3 -2 5 C-2.99 5 -3.98 5 -5 5 C-5.66 4.01 -6.32 3.02 -7 2 C-2.25 0 -2.25 0 0 0 Z " fill="#6E6A60" transform="translate(176,99)"/>
<path d="M0 0 C6.0546875 -0.1953125 6.0546875 -0.1953125 8 0 C8.66 0.66 9.32 1.32 10 2 C6.7 2.33 3.4 2.66 0 3 C0 2.01 0 1.02 0 0 Z " fill="#453622" transform="translate(106,96)"/>
<path d="M0 0 C0.66 0.33 1.32 0.66 2 1 C1.34 2.65 0.68 4.3 0 6 C-0.99 6 -1.98 6 -3 6 C-3 5.01 -3 4.02 -3 3 C-2.34 3 -1.68 3 -1 3 C-0.67 2.01 -0.34 1.02 0 0 Z " fill="#6E665C" transform="translate(179,91)"/>
<path d="M0 0 C1.32 0.33 2.64 0.66 4 1 C4 1.99 4 2.98 4 4 C0.25 5.125 0.25 5.125 -2 4 C-1.34 2.68 -0.68 1.36 0 0 Z " fill="#4E4432" transform="translate(78,79)"/>
<path d="M0 0 C2.31 1.98 4.62 3.96 7 6 C6.34 6.66 5.68 7.32 5 8 C2.69 6.02 0.38 4.04 -2 2 C-1.34 1.34 -0.68 0.68 0 0 Z " fill="#EBE6DE" transform="translate(21,24)"/>
<path d="M0 0 C0.66 0.33 1.32 0.66 2 1 C1.67 2.32 1.34 3.64 1 5 C-1.64 5.66 -4.28 6.32 -7 7 C-7 6.34 -7 5.68 -7 5 C-6.21625 4.731875 -5.4325 4.46375 -4.625 4.1875 C-1.71885077 3.15185568 -1.71885077 3.15185568 0 0 Z " fill="#AE9243" transform="translate(138,154)"/>
<path d="M0 0 C1.32 0.33 2.64 0.66 4 1 C4.33 2.65 4.66 4.3 5 6 C4.01 6.495 4.01 6.495 3 7 C2.01 4.69 1.02 2.38 0 0 Z " fill="#F0E8C6" transform="translate(133,144)"/>
<path d="M0 0 C2.475 0.99 2.475 0.99 5 2 C5 2.99 5 3.98 5 5 C4.01 5.495 4.01 5.495 3 6 C1.5 4.6875 1.5 4.6875 0 3 C0 2.01 0 1.02 0 0 Z " fill="#EDE2BB" transform="translate(148,160)"/>
<path d="M0 0 C0.33 0.66 0.66 1.32 1 2 C2.65 1.34 4.3 0.68 6 0 C5.67 0.99 5.34 1.98 5 3 C3.02 3.33 1.04 3.66 -1 4 C-0.67 2.68 -0.34 1.36 0 0 Z " fill="#989591" transform="translate(158,102)"/>
<path d="M0 0 C2.97 0.495 2.97 0.495 6 1 C5.01 2.485 5.01 2.485 4 4 C2.35 3.67 0.7 3.34 -1 3 C-0.67 2.01 -0.34 1.02 0 0 Z " fill="#433825" transform="translate(94,93)"/>
<path d="M0 0 C2.125 0.9375 2.125 0.9375 4 2 C1.35261084 3.4606285 0.10551666 4 -3 4 C-2.67 3.01 -2.34 2.02 -2 1 C-1.34 0.67 -0.68 0.34 0 0 Z " fill="#4E4738" transform="translate(161,62)"/>
<path d="M0 0 C2.62187494 1.04874998 3.79371361 1.64931313 5.25 4.125 C5.4975 4.74375 5.745 5.3625 6 6 C3 6 3 6 1.3125 4.6875 C0 3 0 3 0 0 Z " fill="#3B3122" transform="translate(31,56)"/>
<path d="M0 0 C0.66 0 1.32 0 2 0 C2 0.99 2 1.98 2 3 C-0.5 5.1875 -0.5 5.1875 -3 7 C-3.66 6.67 -4.32 6.34 -5 6 C-3.38405168 3.95880212 -1.7143618 1.95927063 0 0 Z " fill="#D4D4D3" transform="translate(164,109)"/>
<path d="M0 0 C0.33 1.32 0.66 2.64 1 4 C-1.64 3.34 -4.28 2.68 -7 2 C-4.35261084 0.5393715 -3.10551666 0 0 0 Z " fill="#473B2B" transform="translate(30,101)"/>
<path d="M0 0 C0 0.66 0 1.32 0 2 C-2 3.625 -2 3.625 -4 5 C-4.99 3.68 -5.98 2.36 -7 1 C-4.53721199 -0.231394 -2.7204945 -0.07159196 0 0 Z " fill="#463B29" transform="translate(48,66)"/>
</svg>
