<?xml version="1.0" encoding="UTF-8"?>
<svg version="1.1" xmlns="http://www.w3.org/2000/svg" width="63" height="63">
<path d="M0 0 C20.79 0 41.58 0 63 0 C63 20.79 63 41.58 63 63 C42.21 63 21.42 63 0 63 C0 42.21 0 21.42 0 0 Z " fill="#E8E8E8" transform="translate(0,0)"/>
<path d="M0 0 C20.46 0 40.92 0 62 0 C62 5.28 62 10.56 62 16 C57 15 57 15 56 14 C51.92755011 13.60841828 49.76171477 13.45591802 46.375 15.875 C45.59125 16.57625 44.8075 17.2775 44 18 C39.61278867 20.19360567 34.7951726 21.09995972 30 22 C28.86304687 22.2784375 27.72609375 22.556875 26.5546875 22.84375 C23 23 23 23 20.15625 21.12109375 C19.2796875 20.23550781 18.403125 19.34992187 17.5 18.4375 C16.56542969 17.52097656 15.63085938 16.60445312 14.66796875 15.66015625 C13.34732422 14.34337891 13.34732422 14.34337891 12 13 C10.61816654 11.77568124 9.2248948 10.56393274 7.8125 9.375 C6.884375 8.59125 5.95625 7.8075 5 7 C6.72662339 14.82847695 12.03003947 19.10231394 18 24 C15.39434754 26.60565246 13.09439099 26.99201328 9.5625 28 C5.8712975 29.05580764 3.2061155 29.86258967 0 32 C0 21.44 0 10.88 0 0 Z " fill="#F2F1F0" transform="translate(1,1)"/>
<path d="M0 0 C4.19843443 2.97707169 8.14002508 6.00704834 11.75 9.6875 C12.32234375 10.26886719 12.8946875 10.85023437 13.484375 11.44921875 C13.98453125 11.96097656 14.4846875 12.47273438 15 13 C16.84188612 15.05270463 16.84188612 15.05270463 19 16 C21.56396848 15.89534823 23.53570416 15.59795414 26 15 C27.3303125 14.68289062 27.3303125 14.68289062 28.6875 14.359375 C37.58904499 12.14925441 37.58904499 12.14925441 45 7 C50.24601514 6.49557547 53.47351478 7.35035011 58 10 C58 10.66 58 11.32 58 12 C56.9275 12.4125 55.855 12.825 54.75 13.25 C49.9112462 15.33213042 47.08719769 18.12987206 45 23 C44.29875 22.773125 43.5975 22.54625 42.875 22.3125 C39.9204356 21.71268754 39.9204356 21.71268754 37.34912109 23.4621582 C33.19413304 25.37003615 30.03938464 25.38508166 25.5390625 25.29296875 C24.74849457 25.28872391 23.95792664 25.28447906 23.1434021 25.28010559 C20.6369106 25.26341301 18.13124539 25.22577983 15.625 25.1875 C13.91798042 25.17244092 12.21094815 25.15875466 10.50390625 25.14648438 C6.33562275 25.11354056 2.16795111 25.06182493 -2 25 C-1 23 -1 23 1.94140625 21.9296875 C3.13636719 21.58164062 4.33132813 21.23359375 5.5625 20.875 C7.35880859 20.34519531 7.35880859 20.34519531 9.19140625 19.8046875 C10.11824219 19.53914063 11.04507812 19.27359375 12 19 C12 18.34 12 17.68 12 17 C10.34262726 15.40151938 10.34262726 15.40151938 8.25 13.75 C4.70771641 10.72900992 2.19257988 8.11108728 0 4 C0 2.68 0 1.36 0 0 Z " fill="#493D29" transform="translate(5,7)"/>
<path d="M0 0 C3.96739888 0.33061657 6.34340071 1.3183931 9.75 3.3125 C9.75 3.9725 9.75 4.6325 9.75 5.3125 C8.6775 5.725 7.605 6.1375 6.5 6.5625 C1.6612462 8.64463042 -1.16280231 11.44237206 -3.25 16.3125 C-4.57 15.6525 -5.89 14.9925 -7.25 14.3125 C-6.92 13.6525 -6.59 12.9925 -6.25 12.3125 C-10.06813447 12.58790704 -10.06813447 12.58790704 -13.25 14.3125 C-18.91946971 14.7716096 -23.94994154 14.54410356 -29.25 12.3125 C-29.25 11.6525 -29.25 10.9925 -29.25 10.3125 C-24.7269873 8.70859479 -20.27278274 7.25776082 -15.5625 6.3125 C-9.81618274 5.1069789 -5.30867112 0.51044915 0 0 Z " fill="#807564" transform="translate(53.25,13.6875)"/>
<path d="M0 0 C0 1.98 0 3.96 0 6 C-0.99 6.33 -1.98 6.66 -3 7 C-3 9.31 -3 11.62 -3 14 C-1.35 14 0.3 14 2 14 C2.495 14.99 2.495 14.99 3 16 C-2.90486258 20.09725159 -2.90486258 20.09725159 -6.0234375 19.8203125 C-7.9375 19.25 -7.9375 19.25 -11 18 C-10.01 17.67 -9.02 17.34 -8 17 C-8.33 15.68 -8.66 14.36 -9 13 C-7.68 13 -6.36 13 -5 13 C-8.66291938 10.52214277 -11.6109185 9.51035831 -16 9 C-16 8.34 -16 7.68 -16 7 C-21.66138945 6.27945952 -27.32644329 5.61726196 -33 5 C-33 4.67 -33 4.34 -33 4 C-32.24380371 3.98541748 -31.48760742 3.97083496 -30.70849609 3.95581055 C-27.26349723 3.88108 -23.81944079 3.78450072 -20.375 3.6875 C-19.18519531 3.66494141 -17.99539062 3.64238281 -16.76953125 3.61914062 C-11.08904908 3.44460067 -4.7967947 0 0 0 Z " fill="#D2D1CF" transform="translate(46,28)"/>
<path d="M0 0 C0.66 0.33 1.32 0.66 2 1 C2.625 3.5625 2.625 3.5625 3 6 C-3.18646285 9.66605206 -7.823044 10.83731153 -15 10 C-18.625 9 -18.625 9 -21 8 C-21 7.34 -21 6.68 -21 6 C-15.70058443 4.12077462 -10.45660554 2.55565059 -4.9453125 1.4296875 C-2.80035369 0.99132253 -2.80035369 0.99132253 0 0 Z " fill="#9A9080" transform="translate(45,18)"/>
<path d="M0 0 C4.90673624 3.47932206 9.2847119 7.12630824 13.45703125 11.4609375 C15.06695796 13.14078677 15.06695796 13.14078677 17.4375 14.8125 C17.953125 15.204375 18.46875 15.59625 19 16 C19 16.66 19 17.32 19 18 C10.82669318 15.79949432 6.2003643 13.52465298 1.1875 6.4375 C0 4 0 4 0 0 Z " fill="#514835" transform="translate(5,7)"/>
<path d="M0 0 C0.66 0.33 1.32 0.66 2 1 C2 3.31 2 5.62 2 8 C3.65 8 5.3 8 7 8 C7.33 8.66 7.66 9.32 8 10 C2.09513742 14.09725159 2.09513742 14.09725159 -1.0234375 13.8203125 C-2.9375 13.25 -2.9375 13.25 -6 12 C-5.01 11.67 -4.02 11.34 -3 11 C-3.33 9.68 -3.66 8.36 -4 7 C-2.68 7 -1.36 7 0 7 C-0.66 5.68 -1.32 4.36 -2 3 C-1.34 2.01 -0.68 1.02 0 0 Z " fill="#CFC5A4" transform="translate(41,34)"/>
<path d="M0 0 C8.25 0 16.5 0 25 0 C24.01 0.495 24.01 0.495 23 1 C22.67 1.66 22.34 2.32 22 3 C20.68 2.67 19.36 2.34 18 2 C17.67 2.99 17.34 3.98 17 5 C17 4.34 17 3.68 17 3 C11.33861055 2.27945952 5.67355671 1.61726196 0 1 C0 0.67 0 0.34 0 0 Z " fill="#97948A" transform="translate(13,32)"/>
<path d="M0 0 C0.79921875 0.20367187 1.5984375 0.40734375 2.421875 0.6171875 C3.02515625 0.78476562 3.6284375 0.95234375 4.25 1.125 C3.92 2.115 3.59 3.105 3.25 4.125 C-1.04 4.125 -5.33 4.125 -9.75 4.125 C-8.75 1.125 -8.75 1.125 -6.984375 -0.1171875 C-4.23712246 -1.04894798 -2.78257706 -0.73656452 0 0 Z " fill="#ACACAC" transform="translate(37.75,54.875)"/>
<path d="M0 0 C0.33 0.66 0.66 1.32 1 2 C-1.3943392 4.77239276 -3.47088191 6.00264054 -7 7 C-10.00837909 7.15673908 -12.99078037 7.11800861 -16 7 C-15 5 -15 5 -12.12890625 3.96484375 C-10.95199219 3.62582031 -9.77507813 3.28679688 -8.5625 2.9375 C-4.18057141 1.72693693 -4.18057141 1.72693693 0 0 Z " fill="#463A28" transform="translate(19,25)"/>
<path d="M0 0 C5.09210286 3.56320845 9.22660027 7.04741286 13 12 C11.35 11.67 9.7 11.34 8 11 C7.67 10.01 7.34 9.02 7 8 C6.01 7.67 5.02 7.34 4 7 C3.67 7.66 3.34 8.32 3 9 C0.70620251 5.55930376 0 4.27709699 0 0 Z " fill="#5E5648" transform="translate(5,7)"/>
<path d="M0 0 C0.680625 0.12375 1.36125 0.2475 2.0625 0.375 C-0.28763847 4.1613342 -2.81410726 5.74282371 -6.9375 7.375 C-7.9275 7.045 -8.9175 6.715 -9.9375 6.375 C-3.86310175 0.49316193 -3.86310175 0.49316193 0 0 Z " fill="#5A4F3F" transform="translate(45.9375,24.625)"/>
<path d="M0 0 C0.94875 0.04125 1.8975 0.0825 2.875 0.125 C2.875 0.785 2.875 1.445 2.875 2.125 C-0.45833333 3.79166667 -3.79166667 5.45833333 -7.125 7.125 C-4.56730769 0.18269231 -4.56730769 0.18269231 0 0 Z " fill="#625846" transform="translate(53.125,13.875)"/>
<path d="M0 0 C0.66 0.33 1.32 0.66 2 1 C2 3.31 2 5.62 2 8 C3.65 8 5.3 8 7 8 C7.33 8.66 7.66 9.32 8 10 C6.3125 10.8125 6.3125 10.8125 4 11 C1.25 8.8125 1.25 8.8125 -1 6 C-1 2 -1 2 0 0 Z " fill="#B9B3A4" transform="translate(41,34)"/>
<path d="M0 0 C3.37503669 1.1858237 5.64722731 2.27573689 8 5 C5.64561267 6.42944945 4.51967567 7.08661261 1.75 6.625 C1.1725 6.41875 0.595 6.2125 0 6 C0.99 5.67 1.98 5.34 3 5 C3 4.34 3 3.68 3 3 C2.01 2.67 1.02 2.34 0 2 C0 1.34 0 0.68 0 0 Z " fill="#3C2E19" transform="translate(17,22)"/>
<path d="M0 0 C0.33 0.66 0.66 1.32 1 2 C1.66 2 2.32 2 3 2 C3.33 1.34 3.66 0.68 4 0 C4 0.66 4 1.32 4 2 C4.928125 2.1546875 4.928125 2.1546875 5.875 2.3125 C8 3 8 3 10 6 C5.6109185 5.48964169 2.66291938 4.47785723 -1 2 C-0.67 1.34 -0.34 0.68 0 0 Z " fill="#E5E3DD" transform="translate(32,36)"/>
<path d="M0 0 C1.32 0.33 2.64 0.66 4 1 C4 1.99 4 2.98 4 4 C5.65 4.33 7.3 4.66 9 5 C8.67 5.66 8.34 6.32 8 7 C5.25851328 6.62952882 3.41406801 6.31412056 1.1875 4.625 C0 3 0 3 0 0 Z " fill="#433826" transform="translate(9,14)"/>
<path d="M0 0 C0 0.33 0 0.66 0 1 C-1.65 1 -3.3 1 -5 1 C-5 1.99 -5 2.98 -5 4 C-6.65 4 -8.3 4 -10 4 C-9 1 -9 1 -7.25 -0.25 C-4.47275102 -1.17574966 -2.78428335 -0.77341204 0 0 Z " fill="#BABABA" transform="translate(38,55)"/>
<path d="M0 0 C0 1.65 0 3.3 0 5 C-2.31 4.67 -4.62 4.34 -7 4 C-4.95178546 1.75671741 -3.30858805 0 0 0 Z " fill="#C7C5BF" transform="translate(46,28)"/>
<path d="M0 0 C0.33 0.66 0.66 1.32 1 2 C-1.97 2 -4.94 2 -8 2 C-6.18415346 -1.63169308 -3.37971234 -1.23922786 0 0 Z " fill="#6B6457" transform="translate(11,30)"/>
<path d="M0 0 C3.465 1.485 3.465 1.485 7 3 C7 3.66 7 4.32 7 5 C5.35 5.33 3.7 5.66 2 6 C0 3 0 3 0 0 Z " fill="#B5AA7E" transform="translate(56,14)"/>
<path d="M0 0 C-0.99 1.485 -0.99 1.485 -2 3 C-5.125 3.1875 -5.125 3.1875 -8 3 C-5.53387212 -0.1151089 -3.89156016 -0.31553191 0 0 Z " fill="#3B2D17" transform="translate(39,28)"/>
<path d="M0 0 C0.66 0.33 1.32 0.66 2 1 C0.38405168 3.04119788 -1.2856382 5.04072937 -3 7 C-3.66 7 -4.32 7 -5 7 C-3.75023244 3.34683329 -3.32901247 2.21934164 0 0 Z " fill="#DEDCD6" transform="translate(56,21)"/>
</svg>
